<?xml version="1.0" encoding="utf-8"?>
<svg version="1.1" xmlns:xlink="http://www.w3.org/1999/xlink" width="300px" height="187px" xmlns="http://www.w3.org/2000/svg">
  <g transform="matrix(1 0 0 1 -733 -70 )">
    <path d="M 733 70  L 1033 70  L 1033 257  L 733 257  L 733 70  " fill-rule="nonzero" fill="#cccccc" stroke="none" />
    <path d="M 746 83  L 1020 83  L 1020 244  L 746 244  L 746 83  " fill-rule="nonzero" fill="#ffffff" stroke="none" />
    <path d="M 903.025 126.1  C 895.171 126.1  889 119.929  889 112.075  C 889 104.221  895.171 98.05  903.025 98.05  C 910.879 98.05  917.05 104.221  917.05 112.075  C 917.05 119.929  910.879 126.1  903.025 126.1  " fill-rule="nonzero" fill="#cccccc" stroke="none" />
    <path d="M 751 240  L 751 156.4  L 817.25 118.4  L 910 183.152  L 963 141.2  L 1016 183.152  L 1016 240  L 751 240  " fill-rule="nonzero" fill="#169bd5" stroke="none" />
  </g>
</svg>