<?xml version="1.0" encoding="utf-8"?>
<svg version="1.1" xmlns:xlink="http://www.w3.org/1999/xlink" width="34px" height="34px" xmlns="http://www.w3.org/2000/svg">
  <defs>
    <mask fill="white" id="clip1">
      <path d="M 0 17  C 0 16.1827123937977  0.0551286715469814 15.3804598798354  0.161943999361711 14.5966844733923  C 1.29934418770085 6.25081957608614  8.29728760620242 0  17 0  C 26.52 0  34 7.48000000000002  34 17  C 34 26.52  26.52 34  17 34  C 7.48000000000002 34  0 26.52  0 17  Z " fill-rule="evenodd" />
    </mask>
  </defs>
  <g transform="matrix(1 0 0 1 -1498 -475 )">
    <path d="M 0 17  C 0 16.1827123937977  0.0551286715469814 15.3804598798354  0.161943999361711 14.5966844733923  C 1.29934418770085 6.25081957608614  8.29728760620242 0  17 0  C 26.52 0  34 7.48000000000002  34 17  C 34 26.52  26.52 34  17 34  C 7.48000000000002 34  0 26.52  0 17  Z " fill-rule="nonzero" fill="#ffffff" stroke="none" transform="matrix(1 0 0 1 1498 475 )" />
    <path d="M 0 17  C 0 16.1827123937977  0.0551286715469814 15.3804598798354  0.161943999361711 14.5966844733923  C 1.29934418770085 6.25081957608614  8.29728760620242 0  17 0  C 26.52 0  34 7.48000000000002  34 17  C 34 26.52  26.52 34  17 34  C 7.48000000000002 34  0 26.52  0 17  Z " stroke-width="2" stroke="#797979" fill="none" transform="matrix(1 0 0 1 1498 475 )" mask="url(#clip1)" />
  </g>
</svg>